/* XPM */
static char * max_icon_xpm[] = {
"10 10 3 1",
"  	c None",
"0	c #000000",
".	c #BFBFBF",
"..........",
"..........",
"..........",
"..........",
"..........",
"..........",
"..........",
"..........",
".00000000.",
".00000000."};
