/* XPM */
static char * mini_icon_xpm[] = {
"10 10 3 1",
" 	c None",
".	c #000000",
"+	c #BFBFBF",
"..........",
"..........",
"..........",
".++++++++.",
".++++++++.",
".++++++++.",
".++++++++.",
".++++++++.",
".++++++++.",
".........."};
